<svg version="1.1" id="Layer_1" xmlns="http://www.w3.org/2000/svg" xmlns:xlink="http://www.w3.org/1999/xlink" x="0px" y="0px"
	 width="100%" viewBox="0 0 352 352" enable-background="new 0 0 352 352" xml:space="preserve">
<path fill="#000000" opacity="1.000000" stroke="none" 
	d="
M171.073471,202.935669 
	C160.036011,206.169479 148.900513,207.536728 137.671310,204.083359 
	C133.267105,202.728943 129.020340,200.862595 124.373314,199.105118 
	C121.652878,209.814911 113.815887,214.536758 104.056686,216.896820 
	C99.146957,218.084122 97.842270,217.149063 97.916107,212.208099 
	C98.247002,190.069107 97.051102,167.917938 98.630867,145.787094 
	C100.283096,122.641144 121.234123,101.613358 144.509872,98.535622 
	C173.523834,94.699127 202.964462,114.768295 206.071243,148.595840 
	C206.469437,152.931549 205.705719,155.331955 200.664001,155.904190 
	C192.687149,156.809616 185.532059,160.490829 177.940155,164.977707 
	C178.344803,159.781540 179.928909,155.754532 179.834122,151.426529 
	C179.499146,136.132843 167.338425,124.215073 151.763596,124.281075 
	C136.108215,124.347404 124.224770,136.541412 124.284348,152.478455 
	C124.340797,167.578094 136.509216,179.545578 151.639786,179.790970 
	C160.067841,179.927658 166.582794,176.417084 172.638824,170.949860 
	C193.584732,152.040421 222.366821,150.815506 243.443970,167.719788 
	C248.725510,171.955673 248.739716,172.059708 244.098602,176.703751 
	C240.448273,180.356400 236.703506,183.918243 233.145599,187.658264 
	C231.210922,189.691986 229.714996,189.990707 227.224365,188.215729 
	C214.645706,179.251389 201.731003,180.017944 190.403809,190.265198 
	C186.055420,194.199020 181.190598,197.380417 175.925583,200.946823 
	C174.033264,201.839600 172.553375,202.387634 171.073471,202.935669 
z"/>
<path fill="#000000" opacity="1.000000" stroke="none" 
	d="
M170.799850,203.182617 
	C172.553375,202.387634 174.033264,201.839600 175.703659,201.207764 
	C178.664398,200.584717 180.660614,198.091553 184.339355,197.914520 
	C181.103760,208.242401 181.048813,218.075867 187.847260,226.882767 
	C191.967743,232.220596 197.340485,235.630280 203.908340,237.221710 
	C215.267654,239.974152 228.539871,234.097290 234.064606,222.996979 
	C221.826355,222.996979 210.064316,222.996979 198.302277,222.996979 
	C198.126358,222.473633 197.950455,221.950287 197.774536,221.426956 
	C200.888657,218.303009 204.458984,215.513062 207.034775,211.994995 
	C216.216370,199.454636 228.083557,194.167526 243.599304,196.689392 
	C248.308426,197.454819 253.248322,196.931976 258.076324,196.789734 
	C261.434845,196.690781 262.794586,198.270767 263.289764,201.423935 
	C267.530579,228.429352 250.945358,254.422485 224.652832,261.851807 
	C191.197433,271.305054 157.554001,246.994934 155.848923,212.216232 
	C155.673447,208.637024 156.510223,206.603363 160.491409,206.202087 
	C163.933197,205.855164 167.401932,205.146393 170.799850,203.182617 
z"/>
</svg>